<svg xmlns="http://www.w3.org/2000/svg" viewBox="0 0 48 48">
  <defs>
    <linearGradient id="g1" x1="0" y1="0" x2="1" y2="1">
      <stop offset="0" stop-color="#4F8EF7"/>
      <stop offset="1" stop-color="#8B5CF6"/>
    </linearGradient>
    <linearGradient id="g2" x1="0" y1="0" x2="1" y2="1">
      <stop offset="0" stop-color="#00D4FF"/>
      <stop offset="1" stop-color="#4F8EF7"/>
    </linearGradient>
  </defs>
  <path d="M13 30c-5 0-9-3.8-9-8.5S8 13 13 13c.6 0 1.1 0 1.6.1C16.3 8.8 20.6 6 25.5 6c6.5 0 11.8 4.9 12.4 11.2 4.1.9 7.1 4.4 7.1 8.6 0 4.9-4.2 9.2-9.4 9.2H13z" fill="url(#g1)"/>
  <path d="M24 20l7 5-2.7 9.5H19.7L17 25z" fill="url(#g2)"/>
</svg>
